Coordinates
version=1
nRows=24
nColumns=24
inDegrees=yes

Units are S.I. units (second, meters, Newtons, ...)
Angles are in degrees.

endheader
time	pelvis_tilt	pelvis_list	pelvis_rotation	pelvis_tx	pelvis_ty	pelvis_tz	hip_flexion_r	hip_adduction_r	hip_rotation_r	knee_angle_r	ankle_angle_r	subtalar_angle_r	mtp_angle_r	hip_flexion_l	hip_adduction_l	hip_rotation_l	knee_angle_l	ankle_angle_l	subtalar_angle_l	mtp_angle_l	lumbar_extension	lumbar_bending	lumbar_rotation
      1.10816667	     -0.93734012	     -0.69470278	      0.19783059	     -0.11144765	      0.97699517	      0.31309516	    -17.97671365	      3.31297963	     -2.65112437	     -4.30938185	     17.80058172	     -2.29600294	      1.20823905	     23.45204472	      0.26509894	      0.82379989	      3.57649073	     -3.65491883	     -3.48855515	      1.78205183	    -12.70988245	      4.77772327	     10.05716525
      1.11233333	     -0.89697871	     -0.50283474	      0.21628610	     -0.10554449	      0.97635128	      0.31253142	    -18.12210361	      3.05436345	     -2.87622016	     -4.86649507	     17.98126889	     -1.97915107	      1.29979874	     23.42239282	      0.54671978	      1.03575717	      3.27412206	     -3.92789739	     -3.80214165	      1.84720569	    -12.73705612	      4.53730228	     10.02213115
      1.11650000	     -0.86128704	     -0.29506143	      0.23496101	     -0.09961876	      0.97575094	      0.31195902	    -18.24346892	      2.77651888	     -3.09964286	     -5.46349781	     18.13551705	     -1.68601000	      1.41432573	     23.39969490	      0.84402493	      1.27230980	      2.90699638	     -4.25852667	     -4.17404105	      1.92757685	    -12.75926215	      4.27645722	      9.98299722
      1.12066667	     -0.83001839	     -0.07011976	      0.24969093	     -0.09365252	      0.97519895	      0.31138353	    -18.35410816	      2.47841363	     -3.29870834	     -6.07470530	     18.26626790	     -1.40497555	      1.53241163	     23.38853767	      1.15791330	      1.48669740	      2.47131020	     -4.67463648	     -4.60700796	      2.00377553	    -12.77112138	      4.00017062	      9.93158843
      1.12483333	     -0.80434856	      0.16297220	      0.26888914	     -0.08766626	      0.97468869	      0.31079824	    -18.43912802	      2.17219116	     -3.49464150	     -6.72709793	     18.35933656	     -1.15912312	      1.66728760	     23.38493607	      1.48094466	      1.73166113	      1.98462655	     -5.13097883	     -5.08332021	      2.08443223	    -12.77065590	      3.70481189	      9.87303665
      1.12900000	     -0.78336846	      0.40389318	      0.28983272	     -0.08165544	      0.97422123	      0.31019800	    -18.50732454	      1.85687614	     -3.67454051	     -7.40418198	     18.41134838	     -0.95120438	      1.81638488	     23.39304428	      1.81311910	      1.97338648	      1.44439359	     -5.63599140	     -5.60683605	      2.16504872	    -12.76483745	      3.40585589	      9.80570139
      1.13316667	     -0.76716958	      0.65332105	      0.31569638	     -0.07562754	      0.97379608	      0.30958161	    -18.54814499	      1.53220066	     -3.86004226	     -8.12796957	     18.41728358	     -0.76648802	      2.01251129	     23.40458630	      2.15569482	      2.25838341	      0.87127661	     -6.16291120	     -6.18021585	      2.26111119	    -12.76205332	      3.09692750	      9.73353695
      1.13733333	     -0.76477844	      0.90911791	      0.33624716	     -0.06956931	      0.97341003	      0.30896748	    -18.56984327	      1.20061642	     -4.00129127	     -8.85788866	     18.39571654	     -0.61812994	      2.21483024	     23.44514373	      2.50384319	      2.48597036	      0.23845847	     -6.74977418	     -6.78497385	      2.34329389	    -12.72675896	      2.78151127	      9.65300896
      1.14150000	     -0.76306638	      1.17480496	      0.36352062	     -0.06349617	      0.97307089	      0.30833341	    -18.56868008	      0.85914237	     -4.14635550	     -9.63437618	     18.31656676	     -0.50087006	      2.45840793	     23.48313503	      2.86509179	      2.74976913	     -0.41367837	     -7.32929169	     -7.42004412	      2.42535208	    -12.69929125	      2.45513207	      9.56544049
      1.14566667	     -0.76028404	      1.44716685	      0.39838284	     -0.05740090	      0.97278413	      0.30767453	    -18.55706273	      0.51196368	     -4.29613270	    -10.43137960	     18.18141984	     -0.42048774	      2.82733848	     23.52390582	      3.23739095	      3.04061482	     -1.09951309	     -7.89310772	     -8.09648861	      2.52681428	    -12.67186395	      2.11533039	      9.47393817
      1.14983333	     -0.78351860	      1.71377129	      0.41164338	     -0.05130632	      0.97253058	      0.30704413	    -18.49645903	      0.16663063	     -4.36653833	    -11.26246179	     18.00874235	     -0.39077577	      3.13735236	     23.60547829	      3.59577638	      3.24146686	     -1.82406806	     -8.49557737	     -8.74402901	      2.58381817	    -12.61329066	      1.79887178	      9.37437377
      1.15400000	     -0.80356171	      1.98645760	      0.43553005	     -0.04518691	      0.97233233	      0.30639527	    -18.42289265	     -0.18139491	     -4.44769657	    -12.12497760	     17.77194121	     -0.40350209	      3.47976965	     23.68292281	      3.96499679	      3.46627048	     -2.56753926	     -9.05283786	     -9.40986657	      2.62460685	    -12.55233582	      1.46317034	      9.27423880
      1.15816667	     -0.78319264	      2.27680912	      0.46908975	     -0.03904395	      0.97223405	      0.30571941	    -18.38340906	     -0.54559162	     -4.54307200	    -12.99432868	     17.40469912	     -0.53586110	      8.73543536	     23.71745994	      4.35743062	      3.68893618	     -3.33125408	     -9.51192701	    -10.01854599	      3.03869005	    -12.54628271	      1.10889326	      9.13568905
      1.16233333	     -0.83714887	      2.54138615	      0.48459669	     -0.03291046	      0.97211120	      0.30506900	    -18.22986534	     -0.88621495	     -4.56592145	    -13.92614598	     17.01610709	     -0.62816167	      8.79267010	     23.83995437	      4.71689044	      3.87522217	     -4.11864393	     -9.98415534	    -10.63759439	      3.00728066	    -12.44452677	      0.77822502	      9.06228936
      1.16650000	     -0.86583797	      2.81885680	      0.50017585	     -0.02676376	      0.97207043	      0.30439315	    -18.07845420	     -1.24233871	     -4.59825339	    -14.90415493	     16.60682358	     -0.73546612	      8.90505595	     23.92665670	      5.09297028	      4.07948878	     -4.90483345	    -10.38794808	    -11.26323028	      2.96089473	    -12.37439690	      0.43931536	      8.95420766
      1.17066667	     -0.89267344	      3.09540091	      0.51363503	     -0.02061656	      0.97208737	      0.30371058	    -17.90225941	     -1.59887373	     -4.61999931	    -15.92429848	     16.13390907	     -0.86871576	      9.07961450	     24.01025480	      5.46937769	      4.28111014	     -5.69960655	    -10.72057244	    -11.87595065	      2.89586935	    -12.30819162	      0.10439658	      8.84628107
      1.17483333	     -0.91488611	      3.37043108	      0.52572425	     -0.01446018	      0.97216290	      0.30300772	    -17.71143553	     -1.95513971	     -4.62838223	    -16.96992777	     15.59491257	     -1.00136563	      9.40973875	     24.08902445	      5.84984733	      4.49336524	     -6.51157181	    -10.96220977	    -12.53341202	      2.78075822	    -12.24825720	     -0.22781250	      8.74157896
      1.17900000	     -0.94039306	      3.64985143	      0.51919023	     -0.00831569	      0.97229401	      0.30232380	    -17.46676237	     -2.32378797	     -4.62605655	    -18.10175698	     14.99212797	     -1.21497064	      9.73352392	     24.15678949	      6.22423640	      4.64877343	     -7.29289236	    -11.17185146	    -13.02542665	      2.66788232	    -12.18012414	     -0.56223639	      8.63339399
      1.18316667	     -0.84735320	      3.97638972	      0.51018464	     -0.00210944	      0.97263787	      0.30160821	    -17.35546190	     -2.74936642	     -4.67985394	    -19.20068293	     14.23421596	     -1.37546572	     14.56305415	     24.06504779	      6.65706069	      4.85237102	     -8.03069708	    -11.30351159	    -13.68040986	      1.09343086	    -12.26449125	     -0.96269281	      8.54303891
      1.18733333	     -0.93317019	      4.21349862	      0.50600003	      0.00400195	      0.97277425	      0.30091677	    -16.97703005	     -3.07196904	     -4.62564001	    -20.42965163	     13.49733394	     -1.67861685	     14.65336634	     24.22208059	      6.99153209	      4.95023976	     -8.88528777	    -11.21965365	    -13.97297435	      1.07755346	    -12.12056528	     -1.23910070	      8.42485851
      1.19150000	     -0.95403229	      4.47177930	      0.47816431	      0.01012021	      0.97305037	      0.30022168	    -16.63971405	     -3.42972075	     -4.58151739	    -21.69147733	     12.68907872	     -1.92359160	     14.83531732	     24.27898819	      7.34613812	      5.06528534	     -9.68360823	    -11.15245830	    -14.40347947	      1.03147443	    -12.06153385	     -1.54243803	      8.33662989
      1.19566667	     -0.98174030	      4.71518983	      0.43092762	      0.01623031	      0.97336712	      0.29954114	    -16.25616911	     -3.77990727	     -4.50721030	    -22.99857203	     11.79733266	     -2.14763294	     15.44120170	     24.31882766	      7.68434997	      5.22730525	    -10.44399592	    -10.99513109	    -14.90887292	      0.86476777	    -11.99293415	     -1.82849539	      8.26903720
      1.19983333	     -0.92357145	      4.99578271	      0.39567800	      0.02235039	      0.97382922	      0.29884537	    -15.94656562	     -4.17113314	     -4.50372316	    -24.32011357	     10.76313421	     -2.48993625	     20.06904683	     24.27307792	      8.05956038	      5.25570378	    -11.21953769	    -10.74157229	    -15.13973878	     -0.44474710	    -12.03402338	     -2.17277686	      8.22387016
      1.20400000	     -0.86776469	      5.27419512	      0.34642784	      0.02845397	      0.97431364	      0.29815241	    -15.59126681	     -4.56943059	     -4.48854913	    -25.71170132	      9.75561177	     -2.70387353	     20.09167653	     24.20375176	      8.43285961	      5.32805515	    -11.94600242	    -10.44833845	    -15.44679585	     -0.44267573	    -12.06850887	     -2.50207672	      8.08870032
